# Blender 3.6.0
# www.blender.org
mtllib Layers Base.mtl
o Layers_Base
v -18.032036 -0.292128 5.209598
v 18.032036 -0.292128 5.209598
v -18.032036 0.294548 5.209598
v 18.032036 0.294548 5.209598
v -18.032036 0.294547 -5.209598
v 18.032036 0.294547 -5.209598
v -18.032036 -0.292129 -5.209598
v 18.032036 -0.292129 -5.209598
vn -0.0000 -0.0000 1.0000
vn -0.0000 1.0000 -0.0000
vn -0.0000 -0.0000 -1.0000
vn -0.0000 -1.0000 -0.0000
vn 1.0000 -0.0000 -0.0000
vn -1.0000 -0.0000 -0.0000
vt 0.023984 0.747709
vt 0.976016 0.747709
vt 0.976016 0.763197
vt 0.023984 0.763197
vt 0.023984 0.457172
vt 0.976016 0.457172
vt 0.976016 0.732222
vt 0.023984 0.732222
vt 0.976012 0.732222
vt 0.976012 0.747710
vt 0.023984 0.747710
vt 0.023984 0.182123
vt 0.976017 0.182123
vt 0.976017 0.457172
vt 0.023983 0.763197
vt 0.299034 0.763197
vt 0.299034 0.778684
vt 0.023983 0.778684
vt 0.301386 0.763197
vt 0.576436 0.763197
vt 0.576436 0.778684
vt 0.301386 0.778684
s 0
usemtl initialShadingGroup
f 1/1/1 2/2/1 4/3/1 3/4/1
f 3/5/2 4/6/2 6/7/2 5/8/2
f 5/8/3 6/9/3 8/10/3 7/11/3
f 7/12/4 8/13/4 2/14/4 1/5/4
f 2/15/5 8/16/5 6/17/5 4/18/5
f 7/19/6 1/20/6 3/21/6 5/22/6
